<svg xmlns="http://www.w3.org/2000/svg" xmlns:xlink="http://www.w3.org/1999/xlink" width="1080" zoomAndPan="magnify" viewBox="0 0 810 809.999993" height="1080" preserveAspectRatio="xMidYMid meet" version="1.0"><path fill="#000000" d="M 279.703125 789.75 C 279.703125 789.75 280.96875 789.75 279.703125 789.75 C 320.203125 802.40625 361.96875 810 405 810 C 626.484375 810 807.46875 630.28125 810 410.0625 L 810 406.265625 C 810 182.25 627.75 0 405 0 C 182.25 0 0 182.25 0 405 C 0 584.71875 117.703125 736.59375 279.703125 789.75 Z M 94.921875 622.6875 L 99.984375 611.296875 L 224.015625 651.796875 L 293.625 751.78125 C 293.625 751.78125 292.359375 753.046875 292.359375 753.046875 L 282.234375 763.171875 C 206.296875 737.859375 140.484375 687.234375 94.921875 622.6875 Z M 26.578125 431.578125 L 32.90625 435.375 L 78.46875 594.84375 L 77.203125 596.109375 C 49.359375 548.015625 30.375 491.0625 26.578125 431.578125 Z M 99.984375 180.984375 L 113.90625 180.984375 L 113.90625 312.609375 L 40.5 410.0625 L 25.3125 401.203125 C 26.578125 318.9375 54.421875 243 99.984375 180.984375 Z M 267.046875 81 L 392.34375 122.765625 L 392.34375 229.078125 L 249.328125 334.125 L 139.21875 307.546875 L 139.21875 175.921875 Z M 532.828125 83.53125 L 672.046875 177.1875 L 672.046875 307.546875 L 560.671875 334.125 L 417.65625 229.078125 L 417.65625 122.765625 Z M 784.6875 402.46875 L 770.765625 410.0625 L 696.09375 312.609375 L 696.09375 180.984375 L 710.015625 179.71875 C 756.84375 243 783.421875 318.9375 784.6875 402.46875 Z M 727.734375 603.703125 L 723.9375 594.84375 L 777.09375 434.109375 L 783.421875 430.3125 C 778.359375 494.859375 759.375 553.078125 727.734375 603.703125 Z M 482.203125 746.71875 L 320.203125 746.71875 L 248.0625 641.671875 L 315.140625 544.21875 L 496.125 544.21875 L 556.875 641.671875 Z M 102.515625 585.984375 L 58.21875 429.046875 L 131.625 331.59375 L 239.203125 358.171875 L 293.625 527.765625 L 227.8125 626.484375 Z M 402.46875 253.125 L 407.53125 253.125 L 545.484375 354.375 L 491.0625 518.90625 L 318.9375 518.90625 L 265.78125 353.109375 Z M 575.859375 626.484375 L 515.109375 527.765625 L 569.53125 356.90625 L 678.375 330.328125 L 751.78125 427.78125 L 699.890625 584.71875 Z M 310.078125 772.03125 L 492.328125 772.03125 L 493.59375 773.296875 C 465.75 780.890625 435.375 784.6875 405 784.6875 C 372.09375 784.6875 340.453125 779.625 310.078125 772.03125 Z M 522.703125 765.703125 L 508.78125 753.046875 L 578.390625 653.0625 L 702.421875 612.5625 L 710.015625 630.28125 C 663.1875 692.296875 598.640625 740.390625 522.703125 765.703125 Z M 691.03125 156.9375 L 687.234375 156.9375 L 546.75 62.015625 L 544.21875 53.15625 C 601.171875 74.671875 651.796875 111.375 691.03125 156.9375 Z M 517.640625 43.03125 L 521.4375 60.75 L 405 99.984375 L 280.96875 58.21875 L 284.765625 45.5625 C 322.734375 32.90625 363.234375 25.3125 406.265625 25.3125 C 444.234375 25.3125 482.203125 31.640625 517.640625 43.03125 Z M 254.390625 56.953125 L 254.390625 59.484375 L 122.765625 156.9375 L 118.96875 156.9375 C 155.671875 113.90625 202.5 79.734375 254.390625 56.953125 Z M 254.390625 56.953125 " fill-opacity="1" fill-rule="nonzero"/></svg>