<?xml version="1.0" standalone="no"?>
<!DOCTYPE svg PUBLIC "-//W3C//DTD SVG 20010904//EN"
 "http://www.w3.org/TR/2001/REC-SVG-20010904/DTD/svg10.dtd">
<svg version="1.0" xmlns="http://www.w3.org/2000/svg"
 width="700.000000pt" height="700.000000pt" viewBox="0 0 700.000000 700.000000"
 preserveAspectRatio="xMidYMid meet">
<metadata>
Created by potrace 1.14, written by Peter Selinger 2001-2017
</metadata>
<g transform="translate(0.000000,700.000000) scale(0.100000,-0.100000)"
fill="#000000" stroke="none">
<path d="M3278 6996 c-1 -2 -39 -6 -83 -10 -106 -8 -292 -34 -360 -50 -5 -2
-28 -6 -50 -10 -153 -30 -393 -101 -560 -168 -153 -61 -495 -231 -503 -250 -2
-5 -8 -8 -13 -8 -14 0 -171 -103 -279 -183 -465 -344 -836 -792 -1084 -1308
-145 -302 -254 -644 -300 -944 -2 -16 -8 -50 -12 -75 -7 -48 -8 -59 -21 -190
-15 -158 -8 -605 12 -708 1 -9 6 -42 9 -73 4 -31 9 -67 11 -80 3 -13 7 -39 10
-58 2 -18 7 -41 9 -50 3 -9 7 -28 10 -43 21 -123 126 -474 170 -573 8 -16 26
-59 41 -95 114 -274 346 -651 526 -855 14 -16 50 -57 79 -90 431 -492 1064
-882 1701 -1049 104 -28 301 -71 364 -80 22 -4 54 -9 70 -11 217 -37 651 -41
903 -9 225 28 510 95 727 172 430 153 781 358 1149 671 61 52 294 288 347 351
30 36 57 67 60 70 3 3 35 44 72 92 304 401 522 866 633 1353 7 28 11 51 23
120 6 33 13 70 15 82 28 143 41 314 41 548 0 274 -15 452 -56 660 -6 28 -12
61 -15 75 -11 58 -75 292 -104 380 -227 688 -686 1310 -1284 1741 -435 313
-983 541 -1481 615 -27 4 -57 9 -65 10 -8 2 -44 6 -80 10 -36 3 -78 8 -95 11
-32 5 -531 13 -537 9z m542 -230 c19 -3 55 -8 80 -11 161 -20 509 -98 560
-125 13 -7 22 -32 31 -80 7 -39 10 -72 7 -75 -2 -3 -164 -58 -359 -124 -195
-65 -418 -140 -495 -166 l-142 -48 -198 66 c-423 141 -869 291 -872 293 -5 3
29 114 34 114 3 0 66 18 142 39 173 50 308 79 437 96 22 3 49 8 60 10 11 2 58
7 105 11 47 3 87 8 89 10 6 6 480 -3 521 -10z m1129 -333 c164 -78 467 -265
547 -338 7 -5 31 -26 55 -45 55 -44 212 -181 220 -192 3 -4 43 -47 90 -95 46
-49 90 -96 98 -105 30 -40 -36 -5 -197 105 -92 62 -284 193 -427 289 -143 97
-307 208 -365 247 -58 40 -135 92 -173 116 -62 41 -87 73 -87 110 0 16 70 -10
239 -92z m-2750 53 c-2 -2 -35 -26 -74 -54 -38 -29 -74 -55 -80 -60 -5 -4 -80
-59 -165 -122 -150 -111 -326 -241 -653 -484 -87 -65 -168 -119 -179 -121 -18
-4 -19 -3 -6 13 8 9 28 32 44 51 24 28 166 169 248 246 82 78 320 255 446 332
164 100 413 226 419 212 1 -6 1 -11 0 -13z m666 -372 c286 -96 521 -174 523
-174 1 0 2 -207 2 -460 l0 -459 -47 -35 c-27 -20 -52 -39 -58 -44 -5 -4 -75
-55 -153 -112 -79 -58 -184 -134 -232 -170 -407 -299 -603 -443 -670 -492 -73
-53 -81 -56 -112 -47 -33 9 -395 97 -738 179 l-176 41 1 569 0 569 45 34 c25
19 151 113 280 209 129 96 325 241 435 323 318 237 347 256 364 249 9 -3 250
-84 536 -180z m1781 135 c9 -10 23 -19 29 -19 7 0 19 -7 26 -16 7 -9 22 -20
34 -25 11 -5 110 -70 220 -145 110 -75 347 -235 527 -356 l327 -219 0 -564 -1
-563 -46 -11 c-26 -7 -56 -13 -67 -16 -29 -6 -491 -116 -675 -161 -85 -21
-160 -38 -166 -38 -9 -1 -667 477 -1131 822 l-113 83 0 458 0 458 58 21 c31
12 165 57 297 102 537 182 618 210 622 214 8 8 42 -7 59 -25z m1527 -855 c159
-209 353 -596 451 -900 54 -167 114 -446 131 -604 4 -36 9 -73 11 -83 2 -11 6
-79 9 -152 l7 -132 -56 -32 c-31 -17 -59 -31 -63 -31 -5 1 -35 37 -68 82 -33
44 -103 136 -155 203 -247 320 -408 532 -417 550 -7 15 -11 1061 -4 1132 1 10
57 20 101 17 8 0 32 -23 53 -50z m-5197 33 c5 -5 9 -260 9 -568 l0 -560 -303
-402 c-167 -221 -310 -410 -317 -421 -13 -18 -16 -17 -81 19 l-67 37 8 127 c4
69 8 140 10 156 5 56 16 140 20 155 2 8 7 33 10 55 3 23 8 52 10 65 3 14 10
45 15 70 16 77 18 84 30 130 94 364 249 707 462 1025 l80 120 53 0 c29 0 57
-4 61 -8z m3014 -958 c650 -476 720 -529 720 -536 0 -7 -184 -570 -197 -603
-3 -8 -7 -19 -8 -25 -12 -49 -259 -781 -265 -785 -5 -3 -340 -5 -746 -5 l-737
0 -68 210 c-37 116 -102 318 -144 450 -42 132 -115 359 -162 504 -82 255 -84
264 -66 281 10 9 252 188 538 397 286 209 543 396 570 416 28 20 61 37 75 37
17 0 169 -106 490 -341z m1927 -396 c28 -38 169 -226 315 -419 l264 -351 -218
-664 c-120 -365 -222 -671 -227 -679 -4 -8 -111 -49 -237 -92 -532 -180 -835
-280 -839 -277 -4 5 -341 550 -428 694 -33 55 -68 112 -78 126 -18 26 -18 28
41 210 32 101 91 285 130 409 39 124 87 272 105 330 51 160 163 512 169 535 5
16 25 25 103 44 54 13 206 50 338 82 132 33 249 61 260 64 114 25 200 47 204
51 2 2 14 4 26 4 16 0 37 -20 72 -67z m-4700 42 c32 -9 70 -18 85 -20 15 -3
38 -9 52 -15 15 -5 26 -7 26 -5 0 2 11 0 25 -5 14 -5 36 -12 48 -14 12 -2 51
-12 87 -21 36 -9 74 -19 85 -21 11 -2 115 -28 230 -57 l210 -52 27 -80 c15
-44 63 -192 107 -330 43 -137 101 -315 126 -395 26 -80 62 -192 80 -250 19
-58 56 -174 83 -257 l49 -153 -274 -412 c-151 -227 -281 -419 -288 -427 -11
-11 -64 3 -321 87 -170 55 -412 134 -539 175 l-230 74 -13 49 c-7 27 -22 78
-32 114 -49 170 -83 288 -90 315 -11 47 -199 711 -225 798 l-23 77 187 248
c399 531 446 592 458 592 7 0 38 -7 70 -15z m5549 -885 c-3 -27 -9 -74 -12
-102 -11 -100 -55 -351 -69 -389 -2 -8 -6 -25 -9 -39 -13 -73 -85 -293 -144
-440 -58 -145 -197 -417 -231 -453 -17 -17 -18 -16 -30 21 -13 37 -8 52 158
553 94 283 197 594 229 692 56 173 68 194 111 206 1 1 0 -21 -3 -49z m-6473
-19 c4 -23 371 -1309 382 -1338 2 -7 0 -15 -5 -18 -11 -7 -166 308 -224 456
-38 97 -109 315 -121 369 -2 8 -11 47 -20 85 -20 84 -19 78 -44 235 -10 69
-22 158 -26 199 l-7 73 30 -18 c18 -10 32 -28 35 -43z m4213 -1265 c120 -193
237 -381 261 -419 25 -39 41 -73 37 -80 -10 -16 -429 -608 -546 -771 l-93
-130 -698 1 c-383 0 -699 2 -701 4 -3 2 -97 139 -210 304 -113 165 -211 308
-218 318 -86 121 -188 274 -187 282 0 6 31 55 69 110 38 55 94 136 124 180 74
108 263 383 327 475 l52 76 782 0 783 0 218 -350z m-3301 -340 c94 -31 296
-97 450 -147 l281 -92 229 -330 c127 -181 256 -366 288 -411 89 -126 88 -119
37 -171 -24 -25 -50 -45 -57 -45 -42 0 -394 155 -548 243 -380 214 -763 555
-1023 908 l-41 57 21 49 21 50 86 -28 c47 -15 163 -52 256 -83z m4925 -48 c0
-9 -6 -23 -12 -30 -7 -7 -42 -49 -78 -93 -126 -156 -298 -328 -481 -480 -225
-188 -573 -391 -874 -510 -171 -67 -169 -67 -233 -3 l-53 54 183 262 c101 144
229 328 286 409 56 82 110 158 120 170 13 17 162 76 222 88 8 1 622 203 745
244 l110 37 32 -65 c18 -36 32 -74 33 -83z m-1870 -1237 c0 -15 -288 -70 -455
-88 -150 -15 -583 -9 -680 11 -11 2 -42 7 -70 10 -92 12 -271 48 -330 65 -18
6 276 9 753 9 430 1 782 -3 782 -7z"/>
</g>
</svg>
